<svg version="1.1" id="Layer_1" xmlns="http://www.w3.org/2000/svg" xmlns:xlink="http://www.w3.org/1999/xlink" x="0px" y="0px"
	 width="100%" viewBox="0 0 512 512" enable-background="new 0 0 512 512" xml:space="preserve">
<path fill="#2D2D2D" opacity="1.000000" stroke="none" 
	d="
M386.747192,365.749512 
	C384.847504,367.649261 383.191956,369.292603 381.549835,370.949341 
	C376.306458,376.239258 369.846954,376.414490 364.448547,371.103180 
	C354.472198,361.287659 344.650116,351.315491 334.728363,341.444153 
	C330.348572,337.086609 329.491394,328.566986 334.914825,323.317200 
	C355.862732,303.039948 376.277161,282.211792 396.921051,261.619690 
	C398.208069,260.335846 399.757812,259.315399 402.361359,257.230865 
	C399.943024,255.536728 398.243011,254.675888 396.959198,253.397202 
	C376.182098,232.702789 355.455811,211.957306 334.723145,191.218323 
	C329.608002,186.101654 329.596802,178.812119 334.605225,173.729126 
	C345.119629,163.058182 355.594391,152.348160 366.104309,141.672806 
	C369.056488,138.674194 377.430969,139.429672 381.771851,143.069031 
	C382.662323,143.815598 383.437805,144.699814 384.262451,145.524399 
	C417.723083,178.983917 451.192749,212.434464 484.618347,245.929001 
	C486.467285,247.781769 488.241272,249.832443 489.536530,252.086197 
	C491.543823,255.578751 492.083099,259.290710 489.170868,262.733398 
	C487.886627,264.251556 486.648590,265.821777 485.246429,267.225342 
	C452.508667,299.995178 419.751282,332.745453 386.747192,365.749512 
z"/>
<path fill="#C5181F" opacity="1.000000" stroke="none" 
	d="
M177.265625,172.765930 
	C185.473114,181.056046 185.474716,185.680954 177.475021,193.684723 
	C157.452728,213.717133 137.435669,233.754852 117.352379,253.725952 
	C116.077957,254.993271 114.254456,255.708420 112.389519,256.864502 
	C114.831062,259.486908 116.007645,260.832672 117.269226,262.093384 
	C137.421219,282.231628 157.591415,302.351654 177.740677,322.492645 
	C185.469818,330.218567 185.427948,334.978790 177.626373,342.789276 
	C168.324890,352.101410 159.039459,361.429840 149.699188,370.702942 
	C143.476212,376.881134 138.128571,376.906097 131.983170,370.766388 
	C97.331650,336.146881 62.696907,301.510559 28.072405,266.864044 
	C21.718704,260.506287 21.665506,255.235077 28.070360,248.819168 
	C62.558331,214.271729 97.077560,179.755463 131.622009,145.264496 
	C137.909424,138.986816 143.479660,139.042313 149.788406,145.305756 
	C158.892776,154.344788 167.940140,163.441238 177.265625,172.765930 
z"/>
<path fill="#FFFFFF" opacity="1.000000" stroke="none" 
	d="
M245.260254,196.349777 
	C252.993546,175.409821 260.418121,154.776825 268.087006,134.235001 
	C269.542908,130.335190 272.407257,127.858871 277.245270,127.925644 
	C292.068512,128.130203 306.896362,127.990738 321.722443,128.004303 
	C328.199829,128.010254 330.551208,130.799164 331.093048,137.172104 
	C331.978149,147.582382 326.691071,156.281662 323.632599,165.502823 
	C317.788910,183.121506 310.987488,200.422165 304.602661,217.861816 
	C294.200745,246.273911 283.816254,274.692413 273.420227,303.106659 
	C264.290344,328.060211 255.143219,353.007507 246.031723,377.967804 
	C244.326508,382.639099 241.157532,385.030609 236.110565,385.015137 
	C221.950974,384.971710 207.791138,385.000397 193.631409,384.999847 
	C184.810913,384.999512 179.366516,377.324982 182.376984,369.100098 
	C190.079391,348.056305 197.818787,327.026093 205.503189,305.975739 
	C215.823242,277.705383 226.123123,249.427658 236.392929,221.139023 
	C239.342697,213.013733 242.158859,204.839920 245.260254,196.349777 
z"/>
</svg>